<?xml version="1.0" encoding="utf-8"?>
<!-- Generator: Adobe Illustrator 16.0.0, SVG Export Plug-In . SVG Version: 6.00 Build 0)  -->
<!DOCTYPE svg PUBLIC "-//W3C//DTD SVG 1.1//EN" "http://www.w3.org/Graphics/SVG/1.1/DTD/svg11.dtd">
<svg version="1.1" id="Layer_1" xmlns="http://www.w3.org/2000/svg" xmlns:xlink="http://www.w3.org/1999/xlink" x="0px" y="0px"
	 width="439px" height="612px" viewBox="0 0 439 612" enable-background="new 0 0 439 612" xml:space="preserve">
<linearGradient id="SVGID_1_" gradientUnits="userSpaceOnUse" x1="84.0781" y1="351.3672" x2="350.9102" y2="351.3672">
	<stop  offset="0.48" style="stop-color:#3D5064"/>
	<stop  offset="0.52" style="stop-color:#2F3B4D"/>
</linearGradient>
<polygon fill="url(#SVGID_1_)" points="84.078,260.96 217.494,345.311 350.91,260.96 217.494,441.773 "/>
<g>
	<path fill="#2F3B4D" d="M104.429,464.33H94.33v-5.111h25.784v5.111h-10.105v32.932h-5.58V464.33z"/>
	<path fill="#2F3B4D" d="M120.686,470.177h5.265v2.87h0.112c1.735-2.137,4.011-3.209,6.827-3.209
		c2.105,0.034,3.945,0.729,5.512,2.079l-3.846,4.705c-1.115-0.906-2.268-1.357-3.468-1.357c-1.35,0-2.503,0.451-3.468,1.357
		c-1.075,0.888-1.635,2.326-1.67,4.312v16.327h-5.265V470.177z"/>
	<path fill="#2F3B4D" d="M142.208,470.177h5.269v16.146c0,1.833,0.498,3.26,1.493,4.286c0.976,1.029,2.222,1.542,3.741,1.542
		c1.516,0,2.754-0.513,3.714-1.542c0.98-1.026,1.466-2.453,1.466-4.286v-16.146h5.269v27.085h-5.269v-2.897h-0.1
		c-1.736,2.141-4,3.21-6.793,3.21c-2.171-0.035-4.135-0.849-5.886-2.446c-1.901-1.562-2.869-3.872-2.904-6.927V470.177z"/>
	<path fill="#2F3B4D" d="M174.36,485.779c0,2.175,0.605,3.83,1.82,4.96c1.131,1.149,2.615,1.724,4.451,1.724
		c2.141,0,4.055-0.879,5.74-2.638l3.818,3.367c-2.678,2.958-5.828,4.416-9.446,4.382c-1.385,0-2.731-0.209-4.046-0.625
		c-0.656-0.224-1.296-0.528-1.917-0.914c-0.659-0.328-1.272-0.737-1.848-1.227c-1.11-1.007-2.01-2.415-2.7-4.228
		c-0.76-1.739-1.138-4-1.138-6.785c0-2.677,0.328-4.902,0.983-6.676c0.656-1.81,1.501-3.236,2.526-4.281
		c1.046-1.062,2.214-1.825,3.514-2.295c1.277-0.471,2.542-0.706,3.788-0.706c2.997,0.034,5.535,1.053,7.605,3.055
		c2.106,2.036,3.175,4.837,3.21,8.404v4.482H174.36z M185.454,481.297c-0.066-2.117-0.613-3.714-1.644-4.798
		c-1.015-1.034-2.314-1.547-3.903-1.547c-1.586,0-2.885,0.513-3.899,1.547c-0.999,1.084-1.547,2.681-1.647,4.798H185.454z"/>
	<path fill="#2F3B4D" d="M197.102,459.219h14.283c3.622,0.035,6.345,0.973,8.161,2.816c1.84,1.862,2.758,4.323,2.758,7.386
		c0.035,1.566-0.328,3.062-1.088,4.49c-0.385,0.675-0.944,1.318-1.666,1.928c-0.725,0.645-1.619,1.227-2.681,1.748v0.104
		c2.014,0.54,3.533,1.628,4.563,3.264c0.964,1.689,1.446,3.521,1.446,5.508c-0.035,3.286-1.03,5.886-2.985,7.799
		c-1.94,2.002-4.358,3.001-7.26,3.001h-15.532V459.219z M202.679,464.33v10.938h8.069c2.04,0,3.541-0.552,4.505-1.651
		c0.977-1.014,1.466-2.291,1.466-3.83s-0.489-2.843-1.466-3.911c-0.964-0.995-2.465-1.512-4.505-1.546H202.679z M202.679,480.379
		v11.459h8.617c2.075-0.034,3.595-0.62,4.559-1.755c0.961-1.114,1.443-2.441,1.443-3.977c0-1.569-0.482-2.912-1.443-4.026
		c-0.964-1.1-2.483-1.666-4.559-1.701H202.679z"/>
	<path fill="#2F3B4D" d="M228.822,459.219h5.265v31.077c0,1.237,0.66,1.854,1.979,1.854h1.825v5.111h-2.349
		c-1.922,0-3.503-0.494-4.748-1.481c-1.315-1.003-1.972-2.692-1.972-5.068V459.219z"/>
	<path fill="#2F3B4D" d="M241.296,483.692c0-2.858,0.228-5.053,0.684-6.584c0.47-1.501,1.195-2.762,2.171-3.792
		c0.726-0.898,1.735-1.704,3.036-2.414c1.28-0.675,2.923-1.03,4.925-1.064c2.075,0.034,3.749,0.394,5.03,1.072
		c1.265,0.713,2.24,1.52,2.935,2.426c1.042,1.026,1.778,2.287,2.214,3.784c0.421,1.531,0.633,3.722,0.633,6.572
		c0,2.854-0.212,5.029-0.633,6.526c-0.439,1.496-1.18,2.792-2.222,3.888c-0.339,0.397-0.752,0.791-1.238,1.173
		c-0.439,0.436-1.003,0.81-1.692,1.122c-1.281,0.748-2.959,1.138-5.03,1.173c-2.002-0.035-3.645-0.425-4.925-1.173
		c-1.297-0.679-2.307-1.442-3.032-2.295c-0.976-1.096-1.701-2.392-2.171-3.888C241.523,488.722,241.296,486.547,241.296,483.692z
		 M257.654,483.746c0-1.937-0.081-3.352-0.251-4.243c-0.17-0.852-0.517-1.604-1.041-2.248c-0.386-0.613-0.961-1.092-1.721-1.442
		c-0.725-0.366-1.57-0.548-2.534-0.548c-0.895,0-1.72,0.182-2.479,0.548c-0.729,0.351-1.319,0.829-1.774,1.442
		c-0.455,0.644-0.787,1.396-0.987,2.248c-0.205,0.892-0.305,2.288-0.305,4.189c0,1.886,0.1,3.267,0.305,4.139
		c0.2,0.891,0.532,1.674,0.987,2.356c0.455,0.524,1.045,0.987,1.774,1.389c0.76,0.382,1.585,0.574,2.479,0.574
		c0.964,0,1.81-0.192,2.534-0.574c0.76-0.401,1.335-0.864,1.721-1.389c0.524-0.683,0.871-1.466,1.041-2.356
		C257.573,486.959,257.654,485.598,257.654,483.746z"/>
	<path fill="#2F3B4D" d="M288.699,492.903c-1.146,1.35-2.491,2.449-4.042,3.297c-1.555,0.884-3.348,1.339-5.389,1.374
		c-3.093,0-5.812-1.084-8.149-3.26c-2.423-2.175-3.668-5.696-3.733-10.568c0.065-4.922,1.311-8.489,3.737-10.699
		c2.341-2.172,5.061-3.244,8.157-3.209c2.037,0.034,3.83,0.471,5.381,1.304c1.547,0.849,2.896,1.986,4.038,3.409l-3.892,3.568
		c-1.33-1.836-3.108-2.785-5.334-2.854c-4.482-0.069-6.754,2.758-6.823,8.481c0.069,5.689,2.341,8.493,6.823,8.404
		c2.226-0.034,4.004-0.976,5.334-2.827L288.699,492.903z"/>
	<path fill="#2F3B4D" d="M293.166,459.219h5.265v23.663h0.112l10.086-12.705h6.321l-9.048,10.568l10.29,16.517h-6.63l-6.981-12.651
		l-4.15,4.852v7.8h-5.265V459.219z"/>
	<path fill="#2F3B4D" d="M321.909,488.992c2.145,2.313,4.914,3.471,8.312,3.471c1.52,0,2.762-0.305,3.726-0.914
		c0.961-0.605,1.443-1.462,1.443-2.557c0-0.973-0.285-1.651-0.86-2.033c-0.59-0.401-1.377-0.621-2.353-0.655l-4.664-0.417
		c-2.209-0.208-4.007-0.972-5.392-2.295c-1.419-1.288-2.145-3.09-2.179-5.403c0.034-2.781,0.986-4.872,2.857-6.261
		c1.824-1.392,4.131-2.09,6.932-2.09c1.215,0,2.303,0.077,3.263,0.235c0.96,0.173,1.863,0.416,2.708,0.729
		c1.619,0.679,3.066,1.593,4.351,2.738l-3.267,3.938c-1.015-0.756-2.087-1.377-3.217-1.871c-1.115-0.439-2.399-0.655-3.85-0.655
		c-1.655,0-2.812,0.305-3.472,0.914c-0.694,0.609-1.038,1.393-1.038,2.349c-0.034,0.609,0.225,1.142,0.783,1.594
		c0.506,0.505,1.4,0.829,2.685,0.968l4.354,0.339c2.735,0.209,4.714,1.065,5.929,2.562c1.13,1.462,1.697,3.317,1.697,5.565
		c-0.035,2.631-1.072,4.659-3.112,6.087c-2.021,1.462-4.609,2.21-7.761,2.245c-4.281,0-8.131-1.616-11.556-4.849L321.909,488.992z"
		/>
</g>
<g>
	<path fill="#2F3B4D" d="M126.759,509.299h5.832c0.632,0,1.245,0.062,1.836,0.186c0.586,0.158,1.184,0.486,1.789,0.979
		c0.506,0.37,0.918,0.902,1.234,1.593c0.332,0.672,0.494,1.458,0.494,2.372c0,1.23-0.417,2.35-1.258,3.36
		c-0.864,1.064-2.121,1.612-3.78,1.639h-3.71v6.487h-2.438V509.299z M129.196,517.063h3.614c0.906-0.016,1.589-0.309,2.048-0.872
		c0.433-0.551,0.651-1.16,0.651-1.832c0-0.555-0.088-1.025-0.266-1.407c-0.186-0.344-0.443-0.613-0.775-0.814
		c-0.501-0.327-1.084-0.481-1.747-0.467h-3.525V517.063z"/>
	<path fill="#2F3B4D" d="M140.424,514.086h2.299v1.254h0.051c0.756-0.934,1.751-1.4,2.981-1.4c0.918,0.016,1.72,0.316,2.406,0.906
		l-1.682,2.056c-0.485-0.397-0.991-0.594-1.512-0.594c-0.59,0-1.096,0.196-1.516,0.594c-0.471,0.386-0.714,1.015-0.729,1.883v7.131
		h-2.299V514.086z"/>
	<path fill="#2F3B4D" d="M148.994,519.987c0-1.246,0.101-2.206,0.301-2.874c0.205-0.655,0.521-1.207,0.949-1.654
		c0.316-0.394,0.756-0.744,1.323-1.057c0.56-0.293,1.276-0.447,2.152-0.463c0.906,0.016,1.639,0.17,2.198,0.467
		c0.552,0.312,0.976,0.663,1.28,1.061c0.456,0.447,0.775,0.999,0.969,1.65c0.181,0.668,0.273,1.624,0.273,2.87
		c0,1.25-0.093,2.198-0.273,2.851c-0.193,0.651-0.517,1.219-0.972,1.697c-0.147,0.177-0.328,0.347-0.541,0.513
		c-0.192,0.188-0.439,0.354-0.74,0.489c-0.559,0.328-1.292,0.498-2.194,0.514c-0.876-0.016-1.593-0.186-2.152-0.514
		c-0.567-0.297-1.007-0.628-1.323-1.002c-0.428-0.479-0.744-1.046-0.949-1.697C149.095,522.186,148.994,521.237,148.994,519.987z
		 M156.142,520.011c0-0.845-0.038-1.462-0.112-1.852c-0.072-0.374-0.223-0.702-0.451-0.983c-0.169-0.267-0.42-0.475-0.752-0.629
		c-0.32-0.158-0.687-0.239-1.106-0.239c-0.394,0-0.753,0.081-1.084,0.239c-0.32,0.154-0.575,0.362-0.775,0.629
		c-0.2,0.281-0.343,0.609-0.432,0.983c-0.089,0.39-0.132,0.999-0.132,1.828c0,0.825,0.043,1.427,0.132,1.809
		c0.089,0.39,0.231,0.733,0.432,1.03c0.2,0.228,0.455,0.428,0.775,0.605c0.331,0.166,0.69,0.251,1.084,0.251
		c0.42,0,0.786-0.085,1.106-0.251c0.332-0.178,0.583-0.378,0.752-0.605c0.229-0.297,0.379-0.641,0.451-1.03
		C156.104,521.414,156.142,520.82,156.142,520.011z"/>
	<path fill="#2F3B4D" d="M159.562,514.086h2.438l2.692,8.289h0.042l2.681-8.289h2.445l-4.2,11.829h-1.897L159.562,514.086z"/>
	<path fill="#2F3B4D" d="M177.807,524.866h-0.046c-0.212,0.401-0.544,0.698-0.991,0.888c-0.439,0.2-1.053,0.297-1.832,0.297
		c-1.281-0.016-2.265-0.363-2.955-1.05c-0.729-0.667-1.092-1.52-1.092-2.561c0-0.995,0.316-1.82,0.945-2.473
		c0.633-0.667,1.562-1.011,2.781-1.025h3.189v-1.25c0.016-1.045-0.768-1.551-2.353-1.52c-0.571,0-1.026,0.058-1.357,0.181
		c-0.344,0.146-0.617,0.39-0.814,0.733l-1.812-1.428c0.876-1.176,2.168-1.751,3.872-1.72c1.439-0.016,2.592,0.266,3.452,0.841
		c0.86,0.594,1.296,1.612,1.312,3.055v8.08h-2.299V524.866z M177.807,520.901h-2.766c-1.342,0.027-2.006,0.505-1.99,1.423
		c0,0.405,0.174,0.745,0.521,1.026c0.331,0.312,0.879,0.467,1.646,0.467c0.965,0.016,1.646-0.101,2.044-0.352
		c0.362-0.25,0.544-0.821,0.544-1.712V520.901z"/>
	<path fill="#2F3B4D" d="M183.303,509.299h2.299v6.041c0.421-0.417,0.88-0.761,1.381-1.026c0.463-0.251,0.988-0.374,1.578-0.374
		c1.404,0.038,2.43,0.556,3.078,1.551c0.316,0.37,0.532,0.859,0.647,1.469c0.112,0.599,0.166,1.608,0.166,3.028
		c0,1.4-0.054,2.403-0.166,3.009c-0.115,0.64-0.335,1.146-0.651,1.516c-0.316,0.459-0.729,0.821-1.246,1.096
		c-0.506,0.281-1.115,0.428-1.828,0.443c-1.207-0.031-2.191-0.486-2.959-1.369v1.233h-2.299V509.299z M187.866,516.308
		c-0.513,0-0.922,0.111-1.227,0.332c-0.316,0.22-0.548,0.509-0.694,0.867c-0.139,0.359-0.231,0.748-0.273,1.169
		c-0.047,0.417-0.07,0.856-0.07,1.312c0,0.42,0.023,0.849,0.07,1.28c0.042,0.443,0.135,0.845,0.273,1.203
		c0.146,0.359,0.378,0.648,0.694,0.868c0.305,0.228,0.714,0.344,1.227,0.344c0.544,0,0.976-0.108,1.292-0.32
		c0.316-0.22,0.54-0.502,0.675-0.845c0.146-0.358,0.247-0.764,0.297-1.215c0.016-0.425,0.023-0.864,0.023-1.315
		c0-0.471-0.008-0.934-0.023-1.381c-0.05-0.421-0.15-0.811-0.297-1.169c-0.135-0.354-0.358-0.64-0.675-0.845
		C188.842,516.404,188.41,516.308,187.866,516.308z"/>
	<path fill="#2F3B4D" d="M195.311,509.299h2.303v13.573c0,0.54,0.285,0.811,0.859,0.811h0.799v2.232h-1.026
		c-0.837,0-1.527-0.216-2.075-0.647c-0.57-0.439-0.859-1.177-0.859-2.214V509.299z"/>
	<path fill="#2F3B4D" d="M199.762,514.086h2.438l2.715,8.285h0.043l2.703-8.285h2.445l-4.929,14.278
		c-0.316,0.888-0.752,1.505-1.312,1.848c-0.566,0.324-1.207,0.49-1.921,0.49h-0.76v-2.233h0.675c0.301,0,0.579-0.085,0.837-0.251
		c0.259-0.177,0.437-0.436,0.54-0.778l0.629-1.986L199.762,514.086z"/>
	<path fill="#2F3B4D" d="M220.308,511.532h-4.412v-2.233h11.263v2.233h-4.412v14.383h-2.438V511.532z"/>
	<path fill="#2F3B4D" d="M227.594,514.086h2.299v1.254h0.051c0.756-0.934,1.751-1.4,2.98-1.4c0.918,0.016,1.721,0.316,2.407,0.906
		l-1.682,2.056c-0.485-0.397-0.987-0.594-1.512-0.594c-0.591,0-1.096,0.196-1.516,0.594c-0.471,0.386-0.714,1.015-0.729,1.883v7.131
		h-2.299V514.086z"/>
	<path fill="#2F3B4D" d="M237.121,514.086h2.299v7.051c0,0.798,0.216,1.423,0.651,1.87c0.425,0.452,0.972,0.676,1.632,0.676
		c0.663,0,1.203-0.224,1.624-0.676c0.428-0.447,0.64-1.072,0.64-1.87v-7.051h2.299v11.829h-2.299v-1.265h-0.042
		c-0.76,0.934-1.747,1.4-2.966,1.4c-0.949-0.016-1.806-0.37-2.573-1.068c-0.829-0.683-1.253-1.689-1.265-3.024V514.086z"/>
	<path fill="#2F3B4D" d="M251.296,520.901c0,0.949,0.266,1.67,0.798,2.164c0.49,0.501,1.139,0.752,1.944,0.752
		c0.934,0,1.771-0.382,2.507-1.149l1.666,1.47c-1.168,1.292-2.545,1.929-4.127,1.913c-0.602,0-1.191-0.089-1.767-0.274
		c-0.285-0.096-0.566-0.231-0.837-0.396c-0.289-0.144-0.555-0.324-0.806-0.537c-0.486-0.439-0.88-1.057-1.181-1.847
		c-0.332-0.757-0.497-1.748-0.497-2.963c0-1.168,0.143-2.141,0.432-2.916c0.285-0.79,0.651-1.411,1.104-1.87
		c0.455-0.463,0.968-0.795,1.531-0.999c0.559-0.208,1.11-0.309,1.658-0.309c1.308,0.016,2.415,0.459,3.321,1.331
		c0.918,0.891,1.385,2.113,1.399,3.672v1.959H251.296z M256.144,518.942c-0.03-0.926-0.27-1.624-0.721-2.095
		c-0.444-0.451-1.011-0.675-1.701-0.675c-0.694,0-1.261,0.224-1.705,0.675c-0.436,0.471-0.675,1.169-0.721,2.095H256.144z"/>
	<path fill="#2F3B4D" d="M267.036,509.299h5.632c2.179,0.016,3.811,0.953,4.902,2.805c0.389,0.625,0.636,1.276,0.736,1.959
		c0.081,0.683,0.123,1.867,0.123,3.545c0,1.786-0.062,3.031-0.188,3.737c-0.058,0.359-0.146,0.675-0.263,0.957
		c-0.127,0.273-0.277,0.559-0.455,0.855c-0.471,0.783-1.126,1.428-1.963,1.937c-0.833,0.548-1.852,0.821-3.059,0.821h-5.466V509.299
		z M269.474,523.547h2.916c1.369,0,2.364-0.485,2.985-1.45c0.271-0.358,0.443-0.813,0.518-1.361c0.068-0.54,0.1-1.551,0.1-3.035
		c0-1.446-0.031-2.484-0.1-3.109c-0.086-0.621-0.297-1.13-0.629-1.516c-0.68-0.968-1.636-1.435-2.874-1.404h-2.916V523.547z"/>
	<path fill="#2F3B4D" d="M287.583,524.866h-0.046c-0.213,0.401-0.545,0.698-0.992,0.888c-0.439,0.2-1.053,0.297-1.832,0.297
		c-1.28-0.016-2.264-0.363-2.954-1.05c-0.729-0.667-1.092-1.52-1.092-2.561c0-0.995,0.316-1.82,0.945-2.473
		c0.632-0.667,1.562-1.011,2.78-1.025h3.19v-1.25c0.016-1.045-0.768-1.551-2.353-1.52c-0.571,0-1.026,0.058-1.358,0.181
		c-0.343,0.146-0.617,0.39-0.813,0.733l-1.812-1.428c0.875-1.176,2.167-1.751,3.872-1.72c1.438-0.016,2.592,0.266,3.452,0.841
		c0.86,0.594,1.296,1.612,1.312,3.055v8.08h-2.299V524.866z M287.583,520.901h-2.766c-1.343,0.027-2.006,0.505-1.99,1.423
		c0,0.405,0.174,0.745,0.521,1.026c0.332,0.312,0.88,0.467,1.647,0.467c0.964,0.016,1.646-0.101,2.044-0.352
		c0.362-0.25,0.544-0.821,0.544-1.712V520.901z"/>
	<path fill="#2F3B4D" d="M293.222,510.487h2.299v3.599h1.678v1.824h-1.678v6.893c-0.015,0.602,0.259,0.895,0.817,0.88h0.86v2.232
		h-1.199c-0.81,0-1.47-0.258-1.982-0.774c-0.528-0.494-0.795-1.208-0.795-2.141v-7.09h-1.153v-1.824h1.153V510.487z"/>
	<path fill="#2F3B4D" d="M305.927,524.866h-0.042c-0.212,0.401-0.544,0.698-0.991,0.888c-0.443,0.2-1.054,0.297-1.832,0.297
		c-1.28-0.016-2.265-0.363-2.958-1.05c-0.726-0.667-1.092-1.52-1.092-2.561c0-0.995,0.316-1.82,0.948-2.473
		c0.633-0.667,1.559-1.011,2.781-1.025h3.186v-1.25c0.016-1.045-0.768-1.551-2.349-1.52c-0.574,0-1.025,0.058-1.357,0.181
		c-0.348,0.146-0.617,0.39-0.818,0.733l-1.809-1.428c0.875-1.176,2.164-1.751,3.873-1.72c1.438-0.016,2.588,0.266,3.447,0.841
		c0.86,0.594,1.301,1.612,1.315,3.055v8.08h-2.303V524.866z M305.927,520.901h-2.761c-1.343,0.027-2.006,0.505-1.99,1.423
		c0,0.405,0.173,0.745,0.52,1.026c0.332,0.312,0.88,0.467,1.647,0.467c0.964,0.016,1.647-0.101,2.044-0.352
		c0.363-0.25,0.54-0.821,0.54-1.712V520.901z"/>
</g>
<linearGradient id="SVGID_2_" gradientUnits="userSpaceOnUse" x1="83.6426" y1="194.6211" x2="351.3457" y2="194.6211">
	<stop  offset="0.48" style="stop-color:#3D5064"/>
	<stop  offset="0.52" style="stop-color:#2F3B4D"/>
</linearGradient>
<polygon fill="url(#SVGID_2_)" points="217.494,66.788 83.643,248.51 200.167,322.454 200.167,212.183 150.394,212.183 
	150.394,211.219 150.394,177.698 150.394,177.06 284.596,177.06 284.596,177.698 284.596,211.219 284.596,212.183 234.827,212.183 
	234.827,322.451 351.346,248.51 "/>
</svg>
